<svg xmlns="http://www.w3.org/2000/svg" viewBox="0 0 100 100" fill="none" width="512" height="512">
  <!-- 12 broad rounded petals -->
  <path d="M46,23 C44,15 44,8 47,4 Q50,1 53,4 C56,8 56,15 54,23 Q50,25.5 46,23Z" fill="#190601" transform="rotate(0 50 50)"/>
  <path d="M46,23 C44,15 44,8 47,4 Q50,1 53,4 C56,8 56,15 54,23 Q50,25.5 46,23Z" fill="#190601" transform="rotate(30 50 50)"/>
  <path d="M46,23 C44,15 44,8 47,4 Q50,1 53,4 C56,8 56,15 54,23 Q50,25.5 46,23Z" fill="#190601" transform="rotate(60 50 50)"/>
  <path d="M46,23 C44,15 44,8 47,4 Q50,1 53,4 C56,8 56,15 54,23 Q50,25.5 46,23Z" fill="#190601" transform="rotate(90 50 50)"/>
  <path d="M46,23 C44,15 44,8 47,4 Q50,1 53,4 C56,8 56,15 54,23 Q50,25.5 46,23Z" fill="#190601" transform="rotate(120 50 50)"/>
  <path d="M46,23 C44,15 44,8 47,4 Q50,1 53,4 C56,8 56,15 54,23 Q50,25.5 46,23Z" fill="#190601" transform="rotate(150 50 50)"/>
  <path d="M46,23 C44,15 44,8 47,4 Q50,1 53,4 C56,8 56,15 54,23 Q50,25.5 46,23Z" fill="#190601" transform="rotate(180 50 50)"/>
  <path d="M46,23 C44,15 44,8 47,4 Q50,1 53,4 C56,8 56,15 54,23 Q50,25.5 46,23Z" fill="#190601" transform="rotate(210 50 50)"/>
  <path d="M46,23 C44,15 44,8 47,4 Q50,1 53,4 C56,8 56,15 54,23 Q50,25.5 46,23Z" fill="#190601" transform="rotate(240 50 50)"/>
  <path d="M46,23 C44,15 44,8 47,4 Q50,1 53,4 C56,8 56,15 54,23 Q50,25.5 46,23Z" fill="#190601" transform="rotate(270 50 50)"/>
  <path d="M46,23 C44,15 44,8 47,4 Q50,1 53,4 C56,8 56,15 54,23 Q50,25.5 46,23Z" fill="#190601" transform="rotate(300 50 50)"/>
  <path d="M46,23 C44,15 44,8 47,4 Q50,1 53,4 C56,8 56,15 54,23 Q50,25.5 46,23Z" fill="#190601" transform="rotate(330 50 50)"/>
  <!-- Face ring + fill -->
  <circle cx="50" cy="50" r="27" fill="#190601"/>
  <circle cx="50" cy="50" r="22.5" fill="#AD8A76"/>
  <!-- Forehead dots -->
  <circle cx="50" cy="33" r="1.8" fill="#190601"/>
  <circle cx="46" cy="36.5" r="1.8" fill="#190601"/>
  <circle cx="54" cy="36.5" r="1.8" fill="#190601"/>
  <!-- Central Y-line -->
  <line x1="50" y1="33" x2="50" y2="50" stroke="#190601" stroke-width="2.2" stroke-linecap="round"/>
  <path d="M50,39 C46,42 42,45 38,47" stroke="#190601" stroke-width="2" stroke-linecap="round" fill="none"/>
  <path d="M50,39 C54,42 58,45 62,47" stroke="#190601" stroke-width="2" stroke-linecap="round" fill="none"/>
  <!-- Eyes (almond) -->
  <path d="M36,48 Q41,44 46,48 Q41,50.5 36,48Z" fill="#190601"/>
  <path d="M54,48 Q59,44 64,48 Q59,50.5 54,48Z" fill="#190601"/>
  <!-- Cheek lines -->
  <path d="M37,51 C36,55 36,60 38,64" stroke="#190601" stroke-width="1.3" stroke-linecap="round" fill="none" opacity="0.5"/>
  <path d="M63,51 C64,55 64,60 62,64" stroke="#190601" stroke-width="1.3" stroke-linecap="round" fill="none" opacity="0.5"/>
  <!-- Mouth -->
  <path d="M41,61 Q46,59 50,60 Q54,59 59,61" stroke="#190601" stroke-width="2" stroke-linecap="round" fill="none"/>
  <!-- Chin mark -->
  <rect x="47" y="64" width="6" height="3" rx="1" fill="#190601"/>
</svg>
